<?xml version="1.0" encoding="iso-8859-1"?>
<!-- Generator: Adobe Illustrator 16.0.0, SVG Export Plug-In . SVG Version: 6.00 Build 0)  -->
<!DOCTYPE svg PUBLIC "-//W3C//DTD SVG 1.1//EN" "http://www.w3.org/Graphics/SVG/1.1/DTD/svg11.dtd">
<svg version="1.1" id="Layer_1" xmlns="http://www.w3.org/2000/svg" xmlns:xlink="http://www.w3.org/1999/xlink" x="0px" y="0px"
	 width="512px" height="512px" viewBox="0 0 512 512" style="enable-background:new 0 0 512 512;" xml:space="preserve">
<path d="M445.219,71.813H66.778c-7.318,0-13.25,5.935-13.25,13.252v242.48c0,7.32,5.932,13.252,13.25,13.252h202.673v86.138
	c0,5.359,3.229,10.192,8.182,12.244c1.639,0.678,3.359,1.009,5.066,1.009c3.447,0,6.839-1.348,9.373-3.883l96.172-95.508h56.975
	c7.32,0,13.253-5.932,13.253-13.252V85.064C458.472,77.747,452.539,71.813,445.219,71.813z M256,303.6
	c-11.226,0-20.357-9.132-20.357-20.357c0-11.226,9.132-20.358,20.357-20.358s20.357,9.132,20.357,20.358
	C276.357,294.468,267.226,303.6,256,303.6z M277.325,206.762c-2.673,1.828-4.521,3.174-5.523,4.021v21.272
	c0,8.712-7.089,15.8-15.801,15.8c-8.714,0-15.802-7.088-15.802-15.8v-22.918c0-15.281,11.153-22.903,19.297-28.467
	c8.789-6.005,14.594-9.972,14.594-22.361c0-9.975-8.114-18.09-18.089-18.09c-9.976,0-18.09,8.115-18.09,18.09
	c0,8.713-7.089,15.801-15.802,15.801s-15.802-7.088-15.802-15.801c0-27.4,22.292-49.692,49.693-49.692
	c27.399,0,49.691,22.292,49.691,49.692C305.692,187.381,287.935,199.513,277.325,206.762z"/>
</svg>
