<?xml version="1.0" encoding="utf-8"?>
<!-- Generator: Adobe Illustrator 16.0.0, SVG Export Plug-In . SVG Version: 6.00 Build 0)  -->
<!DOCTYPE svg PUBLIC "-//W3C//DTD SVG 1.1//EN" "http://www.w3.org/Graphics/SVG/1.1/DTD/svg11.dtd">
<svg version="1.1" id="Layer_1" xmlns="http://www.w3.org/2000/svg" xmlns:xlink="http://www.w3.org/1999/xlink" x="0px" y="0px"
	 width="32px" height="32px" viewBox="0 0 32 32" enable-background="new 0 0 32 32" xml:space="preserve">
<g>
	<g>
		<path d="M19.943,21.443v-11.31c0-0.324-0.263-0.587-0.587-0.587H0.765c-0.324,0-0.587,0.263-0.587,0.587v11.31
			c0,0.324,0.263,0.587,0.587,0.587h18.591C19.68,22.031,19.943,21.768,19.943,21.443z M15.491,14.226l0.917-1.59
			c0.092-0.158,0.32-0.158,0.41,0l0.919,1.59c0.091,0.158-0.022,0.356-0.205,0.356h-0.385v2.965c0,0.131-0.107,0.237-0.237,0.237
			h-0.593c-0.131,0-0.237-0.106-0.237-0.237v-2.965h-0.385C15.514,14.582,15.4,14.384,15.491,14.226z M11.938,14.226l0.919-1.59
			c0.09-0.158,0.318-0.158,0.41,0l0.918,1.59c0.092,0.158-0.023,0.356-0.206,0.356h-0.385v2.965c0,0.131-0.105,0.237-0.237,0.237
			h-0.593c-0.13,0-0.236-0.106-0.236-0.237v-2.965h-0.386C11.96,14.582,11.847,14.384,11.938,14.226z M7.979,18.671
			c0.062,0.013,0.105,0.066,0.105,0.129v0.286c0,0.082-0.066,0.148-0.148,0.148H3.563c-0.072,0-0.132-0.059-0.132-0.132v-0.302
			c0-0.063,0.044-0.117,0.105-0.129l1.545-0.313v-1.293c-1.247-0.304-2.175-1.421-2.175-2.761c0-0.722,0.277-1.374,0.719-1.875
			h4.264c0.442,0.502,0.72,1.154,0.72,1.875c0,1.34-0.929,2.457-2.175,2.761v1.293L7.979,18.671z M18.188,19.122
			c0,0.065-0.053,0.118-0.118,0.118h-6.536c-0.065,0-0.119-0.053-0.119-0.118v-0.355c0-0.065,0.053-0.118,0.119-0.118h6.536
			c0.065,0,0.118,0.052,0.118,0.118V19.122z"/>
	</g>
	<g>
		<path d="M31.416,22.986H30.5v-5.112c0-0.6-0.178-1.187-0.515-1.684l-2.29-3.392c-0.559-0.829-1.494-1.325-2.494-1.325h-3.551
			c-0.415,0-0.753,0.336-0.753,0.752v10.173c0,0.324-0.263,0.587-0.587,0.587h-5.228c0.551,0.476,0.931,1.141,1.041,1.894h6.133
			c0.217-1.494,1.503-2.646,3.058-2.646c1.553,0,2.838,1.152,3.056,2.646h3.046c0.208,0,0.376-0.169,0.376-0.376v-1.141
			C31.792,23.155,31.623,22.986,31.416,22.986z M27.667,16.869h-4.687c-0.208,0-0.375-0.168-0.375-0.376v-2.602
			c0-0.208,0.167-0.376,0.375-0.376h2.855c0.123,0,0.238,0.059,0.308,0.159l1.831,2.602C28.15,16.526,27.973,16.869,27.667,16.869z"
			/>
	</g>
	<g>
		<path d="M25.313,22.986c-1.293,0-2.34,1.048-2.34,2.342c0,1.292,1.047,2.34,2.34,2.34s2.341-1.048,2.341-2.34
			C27.653,24.034,26.605,22.986,25.313,22.986z M25.313,26.497c-0.646,0-1.17-0.523-1.17-1.169c0-0.647,0.524-1.171,1.17-1.171
			s1.171,0.524,1.171,1.171C26.483,25.974,25.958,26.497,25.313,26.497z"/>
	</g>
	<g>
		<path d="M5.804,22.986c-0.208,0-0.376,0.169-0.376,0.376v1.142c0,0.208,0.169,0.376,0.376,0.376h4.204
			c0.11-0.753,0.49-1.419,1.042-1.895H5.804z"/>
	</g>
	<g>
		<path d="M13.065,22.986c-1.292,0-2.34,1.048-2.34,2.342c0,1.292,1.048,2.34,2.34,2.34c1.293,0,2.341-1.048,2.341-2.34
			C15.406,24.034,14.358,22.986,13.065,22.986z M13.065,26.497c-0.646,0-1.17-0.523-1.17-1.169c0-0.647,0.524-1.171,1.17-1.171
			c0.646,0,1.17,0.524,1.17,1.171C14.235,25.974,13.711,26.497,13.065,26.497z"/>
	</g>
</g>
</svg>
