<?xml version="1.0" encoding="iso-8859-1"?>
<!-- Generator: Adobe Illustrator 16.0.0, SVG Export Plug-In . SVG Version: 6.00 Build 0)  -->
<!DOCTYPE svg PUBLIC "-//W3C//DTD SVG 1.1//EN" "http://www.w3.org/Graphics/SVG/1.1/DTD/svg11.dtd">
<svg version="1.1" xmlns="http://www.w3.org/2000/svg" xmlns:xlink="http://www.w3.org/1999/xlink" x="0px" y="0px"
	 width="27.193px" height="26.77px" viewBox="0 0 27.193 26.77" style="enable-background:new 0 0 27.193 26.77;"
	 xml:space="preserve">
<g id="c51_box">
	<path style="fill:#000000;" d="M0,26.77h27.193V8.195H0V26.77z M8.328,18.264c0.834,0,2.164,0,2.164,0s0-0.363,0-0.916
		c0-1.712,0-5.04,0-6.312c0,0-0.009-0.298,0.377-0.298c0.388,0,4.777,0,5.318,0c0.54,0,0.447,0.356,0.447,0.356
		c0,1.309,0,4.529,0,6.298c0,0.618,0,1.021,0,1.021s1.657,0,2.345,0c0.687,0,0.055,0.598,0.055,0.598l-5.169,5.029
		c0,0-0.344,0.398-0.701,0.042c-0.492-0.494-5.041-5.192-5.041-5.192S7.492,18.264,8.328,18.264z"/>
	<polygon style="fill:#000000;" points="12.793,0 2.307,0 0.244,7.103 12.31,7.103 	"/>
	<polygon style="fill:#000000;" points="27.193,7.103 24.732,0 14.399,0 15.02,7.103 	"/>
</g>
<g id="Capa_1">
</g>
</svg>
